<svg xmlns="http://www.w3.org/2000/svg" width="183" height="352" viewBox="0 0 183 352">
    <g fill="none" fill-rule="nonzero">
        <ellipse cx="91.5" cy="339" fill="#F1F1F1" rx="91.5" ry="13"/>
        <path fill="#FFC107" d="M139.43 242l22.57-7.075A82.803 82.803 0 0 0 153.57 208L131 215.075A50.79 50.79 0 0 1 139.43 242z"/>
        <circle cx="84" cy="48" r="21" fill="#2F2E41"/>
        <path fill="#9F616A" d="M61.375 315.588L57 335h10.625L72 313zM109 317v16.8l9 1.2v-18zM57 130.579s1.273 24.969 2.545 26.71C60.818 159.031 72.273 184 72.273 184L78 167.741s-8.91-13.355-7.636-20.903c1.272-7.55.47-16.838.47-16.838L57 130.579z"/>
        <circle cx="92" cy="54" r="16" fill="#9F616A"/>
        <path fill="#9F616A" d="M77.956 57s.59 23.696-3.537 27.25C70.292 87.806 98 84.844 98 84.844s-5.895-16.587-1.179-20.142C101.537 61.147 77.956 57 77.956 57z"/>
        <path fill="#2F2E41" d="M100.312 81.888s-3.477-6.435-8.112-5.85c-4.636.585-19.702 1.755-20.281 2.925-.58 1.17-2.318 5.266-3.477 6.436-1.16 1.17-9.851 2.925-10.43 9.946-.58 7.022 20.86 49.733 20.86 49.733s-2.897 9.946-2.318 12.287c.58 2.34-2.897 9.361-2.318 12.287.58 2.925-8.691 20.478-4.056 43.296v36.86s-15.645 63.775-11.01 68.456c4.636 4.68 20.282 1.755 23.179 0 2.897-1.755 15.066-90.104 15.066-90.104l5.794-29.84.58 65.53s-1.16 54.999 2.897 56.754c4.056 1.756 19.702 2.34 20.86-1.17.904-2.738 5.333-75.587 7.239-107.52a120.429 120.429 0 0 0-2.552-32.867c-2.411-11.045-5.913-24.022-9.901-29.288-7.533-9.947-12.17-41.542-12.17-41.542l9.852-18.137s-5.795-5.851-9.272-5.851c-3.476 0-10.43-2.34-10.43-2.34z"/>
        <path fill="#2F2E41" d="M61.299 93l-3.163 2.128s-2.235 38.182-.436 40.554c1.8 2.37 14.307 1.214 15.25-.875C73.892 132.717 61.299 93 61.299 93z"/>
        <path fill="#9F616A" d="M108 126.92s.586 24.486 4.104 31.482c3.517 6.997 16.415 36.148 16.415 36.148s-.748 32.084 5.782 24.204c6.53-7.88 2.426-26.536 2.426-26.536l-11.139-43.144s-5.863-19.24-5.276-25.07c.586-5.83-12.312 2.915-12.312 2.915z"/>
        <path fill="#2F2E41" d="M119.592 324.056s.597-.466 2.387 1.284c1.791 1.75 6.567 4.082 5.97 10.496-.597 6.415-4.179 7.581-4.179 7.581v-1.75h-1.79v2.917s-2.985 9.33-16.715 3.499c0 0-.597-4.666 0-7.581.597-2.916.597-16.912 2.388-16.329 1.79.584 6.566 1.167 7.76 3.5 1.194 2.332 4.776 1.515 4.179-3.617zM59.408 324.056s-.597-.466-2.387 1.284c-1.791 1.75-6.567 4.082-5.97 10.496.597 6.415 4.179 7.581 4.179 7.581v-1.75h1.79v2.917s2.985 9.33 16.715 3.499c0 0 .597-4.666 0-7.581-.597-2.916-.597-16.912-2.388-16.329-1.79.584-6.566 1.167-7.76 3.5-1.194 2.332-4.776 1.515-4.179-3.617zM111.78 90l8.496 1.773s0 13 2.428 18.319c2.427 5.318 6.675 17.728 4.855 18.319-1.82.59-18.813 8.864-20.027 4.136C106.318 127.82 103.284 90 111.78 90z"/>
        <circle cx="61" cy="21" r="21" fill="#2F2E41"/>
        <path fill="#2F2E41" d="M42.446 37.37c5.536 4.136 12.668 5.242 19.136 2.97C68.049 38.068 73.05 32.698 75 25.933c-.991 8.146-6.331 15.025-13.812 17.792-7.48 2.767-15.832.953-21.601-4.692-5.77-5.646-7.977-14.164-5.71-22.033-.962 7.898 2.324 15.71 8.569 20.37z"/>
        <circle cx="77.5" cy="52.5" r="15.5" fill="#2F2E41"/>
        <ellipse cx="93" cy="47" fill="#2F2E41" rx="14" ry="11"/>
        <ellipse cx="95.5" cy="58" fill="#A0616A" rx="2.5" ry="4"/>
    </g>
</svg>
