<svg xmlns="http://www.w3.org/2000/svg" width="207" height="199" viewBox="0 0 207 199">
    <g fill="none" fill-rule="evenodd">
        <g fill="#192534" fill-rule="nonzero">
            <path d="M3.589 55.29l91.224 44.95c2.374 1.154 5.554 1.76 8.68 1.76 3.127 0 6.307-.606 8.681-1.76L203.4 55.29c4.801-2.367 4.801-6.217 0-8.58L112.174 1.76C109.8.606 106.62 0 103.494 0c-3.127 0-6.307.606-8.68 1.76L3.588 46.71c-4.785 2.363-4.785 6.213 0 8.58z"/>
            <path d="M203.418 95.04s-16.65-8.15-18.86-9.246c-2.21-1.097-2.8-1.038-5.12.055-2.318 1.092-67.251 32.95-67.251 32.95-2.427 1.152-5.551 1.751-8.676 1.751s-6.304-.599-8.676-1.75c0 0-63.213-30.96-66.176-32.437-3.232-1.585-4.155-1.585-7.063-.164L3.599 95.006c-4.799 2.354-4.799 6.18 0 8.533l91.178 44.71c2.372 1.148 5.551 1.751 8.676 1.751 3.124 0 6.303-.603 8.676-1.75l91.177-44.71c4.907-2.3 4.907-6.125.108-8.48l.004-.02z"/>
            <path d="M203.407 144.035s-16.654-8.145-18.865-9.241c-2.21-1.096-2.801-1.037-5.12.054-2.32 1.092-67.212 32.968-67.212 32.968-2.427 1.15-5.552 1.754-8.678 1.754-3.125 0-6.304-.603-8.677-1.754 0 0-63.226-30.944-66.19-32.42-3.233-1.585-4.156-1.585-7.065-.164l-18 8.803c-4.8 2.352-4.8 6.18 0 8.528l91.196 44.687c2.374 1.202 5.553 1.75 8.678 1.75 3.126 0 6.305-.603 8.678-1.75l91.2-44.687c4.855-2.348 4.855-6.176.055-8.528z"/>
        </g>
        <text fill="#FFF" font-family="Lato-Medium, Lato" font-size="14" font-weight="400" letter-spacing=".131">
            <tspan x="58.38" y="41">Transformation</tspan> <tspan x="55.098" y="58">&amp; Normalisation</tspan>
        </text>
    </g>
</svg>
