<svg xmlns="http://www.w3.org/2000/svg" width="241" height="450" viewBox="0 0 241 450">
    <defs>
        <linearGradient id="a" x1="50.001%" x2="50.001%" y1="100%" y2="0%">
            <stop offset="0%" stop-color="gray" stop-opacity=".25"/>
            <stop offset="54%" stop-color="gray" stop-opacity=".12"/>
            <stop offset="100%" stop-color="gray" stop-opacity=".1"/>
        </linearGradient>
        <linearGradient id="b" x1="49.998%" x2="49.998%" y1="100%" y2="0%">
            <stop offset="0%" stop-color="gray" stop-opacity=".25"/>
            <stop offset="54%" stop-color="gray" stop-opacity=".12"/>
            <stop offset="100%" stop-color="gray" stop-opacity=".1"/>
        </linearGradient>
        <linearGradient id="c" x1="0%" y1="49.99%" y2="49.99%">
            <stop offset="0%" stop-color="#DADADA"/>
            <stop offset="100%" stop-color="#FFF"/>
        </linearGradient>
        <linearGradient id="d" x1="50.002%" x2="50.002%" y1="100%" y2="0%">
            <stop offset="0%" stop-color="gray" stop-opacity=".25"/>
            <stop offset="54%" stop-color="gray" stop-opacity=".12"/>
            <stop offset="100%" stop-color="gray" stop-opacity=".1"/>
        </linearGradient>
        <linearGradient id="e" x1="50.002%" x2="50.002%" y1="100%" y2="0%">
            <stop offset="0%" stop-color="gray" stop-opacity=".25"/>
            <stop offset="54%" stop-color="gray" stop-opacity=".12"/>
            <stop offset="100%" stop-color="gray" stop-opacity=".1"/>
        </linearGradient>
    </defs>
    <g fill="none" fill-rule="evenodd">
        <path fill="url(#a)" fill-rule="nonzero" d="M241 221L0 261.092V347l241-3.934z"/>
        <path fill="#FFC107" fill-rule="nonzero" d="M2 261.819L235 223v114.606L2 345z"/>
        <path fill="url(#b)" fill-rule="nonzero" d="M239 110L72 157.578V207l167-35.84z"/>
        <path fill="#FFF" fill-rule="nonzero" d="M234 112L75 158v46l159-36.799z"/>
        <path stroke="#DBDBDB" stroke-width="2" d="M101 174.58c0 6.888-3.408 13.287-7.572 14.286-4.165.998-7.428-3.678-7.428-10.451 0-6.773 3.306-13.136 7.428-14.25 4.121-1.114 7.572 3.526 7.572 10.414z"/>
        <path fill="#DBDBDB" fill-rule="nonzero" d="M215 143.423L114 170v-5.673L215 137zM215 156.419L114 183v-5.674L215 150z"/>
        <path fill="#FFF" fill-rule="nonzero" d="M49 298.699c0-12.916-5.759-22.595-12.73-21.633-6.83.946-12.27 11.788-12.27 24.237 0 12.449 5.44 22.158 12.27 21.68C43.268 322.494 49 311.621 49 298.7z"/>
        <path fill="url(#c)" fill-rule="nonzero" d="M206 276.417L67 292v-8.73L206 266zM206 299.417L67 315v-8.73L206 289z"/>
        <path fill="url(#d)" fill-rule="nonzero" d="M235.155 385.948L71 384v50.499L237 450z"/>
        <path fill="#FFF" fill-rule="nonzero" d="M234 388.872L75 387v44.905L234 445z"/>
        <path stroke="#DBDBDB" stroke-width="2" d="M103 411.893c0 6.97-3.41 12.384-7.575 12.096-4.166-.288-7.425-6.043-7.425-12.885 0-6.841 3.307-12.255 7.43-12.1 4.123.154 7.57 5.92 7.57 12.89z"/>
        <path fill="#DBDBDB" fill-rule="nonzero" d="M216 414l-98-4.919V403l98 4.148zM216 427l-98-4.919V416l98 4.148z"/>
        <path fill="url(#e)" fill-rule="nonzero" d="M238 0L72 66.95V117l166-55.715z"/>
        <path fill="#FFF" fill-rule="nonzero" d="M236 3L75 69.506V112l161-53.576z"/>
        <path stroke="#DBDBDB" stroke-width="2" d="M109 77.674c0 6.798-3.408 13.522-7.572 15.023-4.165 1.5-7.428-2.72-7.428-9.376 0-6.656 3.306-13.35 7.428-14.97 4.121-1.621 7.572 2.525 7.572 9.323z"/>
        <path fill="#DBDBDB" fill-rule="nonzero" d="M219 32.376L121 70v-6.552L219 25zM219 49.377L121 87v-6.548L219 42z"/>
        <path fill="#47E6B1" fill-rule="nonzero" d="M94 78.358l3.194-.509 3.194 3.33L104.07 74H108l-7.612 10z"/>
        <path fill="#FFC107" fill-rule="nonzero" d="M25 300.972l5.02-.821 5.018 5.335L40.825 294H47l-11.962 16z"/>
        <path fill="#000" fill-rule="nonzero" d="M25 300.972l5.02-.821 5.018 5.335L40.825 294H47l-11.962 16z" opacity=".2"/>
    </g>
</svg>
